<svg width="156" height="40" viewBox="0 0 156 40" fill="none" xmlns="http://www.w3.org/2000/svg">
<path fill-rule="evenodd" clip-rule="evenodd" d="M31.0773 20C34.3908 25.7038 35.2229 31.2074 32.435 34.1422C29.647 37.0769 24.4185 36.2009 18.9999 32.713C13.5813 36.2009 8.35289 37.0769 5.5649 34.1422C2.77692 31.2074 3.60911 25.7038 6.92258 20C3.60911 14.2963 2.77692 8.79263 5.5649 5.8579C8.35289 2.92318 13.5814 3.79917 18.9999 7.28704C24.4185 3.79917 29.647 2.92318 32.435 5.8579C35.2229 8.79263 34.3908 14.2963 31.0773 20ZM14.5216 15.286C15.9884 13.742 17.5065 12.4041 18.9999 11.2908C20.4934 12.4041 22.0115 13.742 23.4783 15.286C24.945 16.83 26.2161 18.428 27.2737 20C26.2161 21.5721 24.945 23.1701 23.4783 24.7141C22.0115 26.2581 20.4934 27.596 18.9999 28.7093C17.5065 27.596 15.9884 26.2581 14.5216 24.7141C13.0548 23.1701 11.7838 21.5721 10.7262 20C11.7838 18.428 13.0548 16.83 14.5216 15.286ZM25.7174 12.929C26.9585 14.2354 28.0847 15.5869 29.0803 16.9511C31.0839 13.0342 31.5598 9.65073 30.1958 8.21493C28.8318 6.77913 25.6175 7.28008 21.8964 9.3891C23.1924 10.4371 24.4764 11.6226 25.7174 12.929ZM25.7174 27.0711C26.9585 25.7647 28.0847 24.4132 29.0803 23.049C31.0839 26.9659 31.5598 30.3494 30.1958 31.7852C28.8318 33.221 25.6175 32.72 21.8964 30.611C23.1924 29.5629 24.4764 28.3775 25.7174 27.0711ZM7.80408 8.21493C9.16809 6.77913 12.3824 7.28008 16.1035 9.38909C14.8075 10.4371 13.5235 11.6226 12.2824 12.929C11.0413 14.2354 9.91517 15.5869 8.91954 16.9511C6.91597 13.0342 6.44007 9.65073 7.80408 8.21493ZM8.91954 23.049C9.91517 24.4132 11.0413 25.7647 12.2824 27.0711C13.5235 28.3775 14.8075 29.5629 16.1035 30.611C12.3824 32.72 9.16809 33.221 7.80408 31.7852C6.44007 30.3494 6.91597 26.9659 8.91954 23.049ZM20.5833 20C20.5833 19.0796 19.8744 18.3334 18.9999 18.3334C18.1255 18.3334 17.4166 19.0796 17.4166 20C17.4166 20.9205 18.1255 21.6667 18.9999 21.6667C19.8744 21.6667 20.5833 20.9205 20.5833 20Z" fill="#FF2323"/>
<path d="M52.5327 16.1293C52.3788 15.6307 52.1664 15.1844 51.8956 14.7905C51.6309 14.3904 51.3108 14.0488 50.9354 13.7656C50.5661 13.4825 50.1413 13.2701 49.6612 13.1286C49.1811 12.9808 48.6579 12.907 48.0916 12.907C47.076 12.907 46.1712 13.1624 45.3771 13.6733C44.5831 14.1842 43.9583 14.9351 43.5028 15.9261C43.0535 16.911 42.8288 18.1113 42.8288 19.527C42.8288 20.955 43.0535 22.1645 43.5028 23.1555C43.9522 24.1465 44.5769 24.9006 45.3771 25.4176C46.1773 25.9285 47.1068 26.1839 48.1655 26.1839C49.1257 26.1839 49.9567 25.9993 50.6584 25.63C51.3662 25.2607 51.911 24.7375 52.2926 24.0604C52.6742 23.3771 52.8651 22.5769 52.8651 21.6598L53.6406 21.7798H48.5071V19.1023H56.1797V21.3736C56.1797 22.9924 55.835 24.3928 55.1456 25.5746C54.4562 26.7564 53.5083 27.6674 52.3018 28.3075C51.0954 28.9415 49.7105 29.2585 48.147 29.2585C46.4051 29.2585 44.8755 28.8677 43.5582 28.0859C42.2472 27.2981 41.2223 26.1809 40.4837 24.7344C39.7512 23.2817 39.3849 21.5582 39.3849 19.5639C39.3849 18.0374 39.6004 16.674 40.0312 15.4737C40.4683 14.2734 41.0777 13.2547 41.8594 12.4176C42.6411 11.5743 43.5582 10.9342 44.6108 10.4972C45.6634 10.054 46.8082 9.83239 48.0455 9.83239C49.0919 9.83239 50.0675 9.98627 50.9723 10.294C51.8771 10.5956 52.6804 11.0265 53.3821 11.5866C54.09 12.1468 54.6716 12.8116 55.1271 13.581C55.5826 14.3504 55.8812 15.1998 56.0227 16.1293H52.5327ZM63.4252 29.2862C62.5266 29.2862 61.7172 29.1262 60.997 28.8061C60.283 28.4799 59.7167 27.9998 59.2981 27.3658C58.8857 26.7318 58.6795 25.95 58.6795 25.0206C58.6795 24.2204 58.8272 23.5587 59.1227 23.0355C59.4181 22.5123 59.8213 22.0938 60.3322 21.7798C60.8431 21.4659 61.4186 21.2289 62.0588 21.0689C62.7051 20.9027 63.3729 20.7827 64.0623 20.7088C64.8933 20.6226 65.5673 20.5457 66.0843 20.478C66.6014 20.4041 66.9769 20.2933 67.2108 20.1456C67.4508 19.9917 67.5708 19.7547 67.5708 19.4347V19.3793C67.5708 18.6837 67.3646 18.1451 66.9522 17.7635C66.5398 17.3819 65.9458 17.1911 65.1703 17.1911C64.3516 17.1911 63.7022 17.3696 63.2221 17.7266C62.7482 18.0836 62.4281 18.5052 62.2619 18.9915L59.1412 18.5483C59.3874 17.6866 59.7936 16.9664 60.3599 16.3878C60.9262 15.803 61.6187 15.366 62.4373 15.0767C63.256 14.7812 64.1608 14.6335 65.1518 14.6335C65.8351 14.6335 66.5152 14.7135 67.1923 14.8736C67.8694 15.0336 68.488 15.2983 69.0481 15.6676C69.6083 16.0308 70.0576 16.5263 70.3961 17.1541C70.7408 17.782 70.9132 18.5668 70.9132 19.5085V29H67.7001V27.0518H67.5893C67.3862 27.4458 67.1 27.8151 66.7306 28.1598C66.3675 28.4983 65.9089 28.7723 65.3549 28.9815C64.8071 29.1847 64.1639 29.2862 63.4252 29.2862ZM64.2931 26.8303C64.9641 26.8303 65.5458 26.6979 66.0382 26.4332C66.5306 26.1624 66.9092 25.8054 67.1738 25.3622C67.4447 24.919 67.5801 24.4358 67.5801 23.9126V22.2415C67.4754 22.3277 67.2969 22.4077 67.0446 22.4815C66.7984 22.5554 66.5214 22.62 66.2136 22.6754C65.9058 22.7308 65.6011 22.7801 65.2995 22.8232C64.9979 22.8662 64.7363 22.9032 64.5147 22.9339C64.0162 23.0017 63.5699 23.1125 63.176 23.2663C62.782 23.4202 62.4712 23.6357 62.2434 23.9126C62.0157 24.1835 61.9018 24.5343 61.9018 24.9652C61.9018 25.5807 62.1265 26.0455 62.5758 26.3594C63.0252 26.6733 63.5976 26.8303 64.2931 26.8303ZM74.274 14.8182H77.6163V29.8125C77.6163 30.8343 77.4224 31.6776 77.0346 32.3423C76.6468 33.0071 76.0867 33.5026 75.3542 33.8288C74.6217 34.1551 73.7323 34.3182 72.6859 34.3182C72.5628 34.3182 72.4489 34.3151 72.3443 34.3089C72.2396 34.3089 72.1258 34.3059 72.0027 34.2997V31.576C72.095 31.5821 72.1781 31.5852 72.252 31.5852C72.3258 31.5914 72.4028 31.5945 72.4828 31.5945C73.1229 31.5945 73.5815 31.4375 73.8585 31.1236C74.1355 30.8158 74.274 30.3634 74.274 29.7663V14.8182ZM75.9359 12.8054C75.4004 12.8054 74.9418 12.63 74.5602 12.2791C74.1847 11.9221 73.997 11.4943 73.997 10.9957C73.997 10.491 74.1847 10.0632 74.5602 9.71236C74.9418 9.35535 75.4004 9.17685 75.9359 9.17685C76.4653 9.17685 76.9177 9.35535 77.2931 9.71236C77.6748 10.0632 77.8656 10.491 77.8656 10.9957C77.8656 11.4943 77.6748 11.9221 77.2931 12.2791C76.9177 12.63 76.4653 12.8054 75.9359 12.8054ZM85.1342 29.2862C84.2356 29.2862 83.4261 29.1262 82.706 28.8061C81.992 28.4799 81.4257 27.9998 81.0071 27.3658C80.5947 26.7318 80.3885 25.95 80.3885 25.0206C80.3885 24.2204 80.5362 23.5587 80.8317 23.0355C81.1271 22.5123 81.5303 22.0938 82.0412 21.7798C82.5521 21.4659 83.1276 21.2289 83.7678 21.0689C84.4141 20.9027 85.0819 20.7827 85.7713 20.7088C86.6023 20.6226 87.2763 20.5457 87.7933 20.478C88.3104 20.4041 88.6858 20.2933 88.9197 20.1456C89.1598 19.9917 89.2798 19.7547 89.2798 19.4347V19.3793C89.2798 18.6837 89.0736 18.1451 88.6612 17.7635C88.2488 17.3819 87.6548 17.1911 86.8793 17.1911C86.0606 17.1911 85.4112 17.3696 84.9311 17.7266C84.4571 18.0836 84.1371 18.5052 83.9709 18.9915L80.8501 18.5483C81.0964 17.6866 81.5026 16.9664 82.0689 16.3878C82.6352 15.803 83.3277 15.366 84.1463 15.0767C84.965 14.7812 85.8698 14.6335 86.8608 14.6335C87.544 14.6335 88.2242 14.7135 88.9013 14.8736C89.5784 15.0336 90.197 15.2983 90.7571 15.6676C91.3172 16.0308 91.7666 16.5263 92.1051 17.1541C92.4498 17.782 92.6222 18.5668 92.6222 19.5085V29H89.4091V27.0518H89.2983C89.0952 27.4458 88.8089 27.8151 88.4396 28.1598C88.0765 28.4983 87.6179 28.7723 87.0639 28.9815C86.5161 29.1847 85.8729 29.2862 85.1342 29.2862ZM86.0021 26.8303C86.6731 26.8303 87.2547 26.6979 87.7472 26.4332C88.2396 26.1624 88.6181 25.8054 88.8828 25.3622C89.1536 24.919 89.2891 24.4358 89.2891 23.9126V22.2415C89.1844 22.3277 89.0059 22.4077 88.7536 22.4815C88.5073 22.5554 88.2304 22.62 87.9226 22.6754C87.6148 22.7308 87.3101 22.7801 87.0085 22.8232C86.7069 22.8662 86.4453 22.9032 86.2237 22.9339C85.7251 23.0017 85.2789 23.1125 84.8849 23.2663C84.491 23.4202 84.1802 23.6357 83.9524 23.9126C83.7247 24.1835 83.6108 24.5343 83.6108 24.9652C83.6108 25.5807 83.8355 26.0455 84.2848 26.3594C84.7341 26.6733 85.3066 26.8303 86.0021 26.8303ZM99.3253 20.6903V29H95.983V14.8182H99.1776V17.228H99.3438C99.67 16.4339 100.19 15.803 100.904 15.3352C101.624 14.8674 102.514 14.6335 103.572 14.6335C104.551 14.6335 105.404 14.8428 106.13 15.2614C106.862 15.6799 107.429 16.2862 107.829 17.0803C108.235 17.8743 108.435 18.8376 108.429 19.9702V29H105.087V20.4872C105.087 19.5393 104.84 18.7976 104.348 18.2621C103.862 17.7266 103.188 17.4588 102.326 17.4588C101.741 17.4588 101.221 17.5881 100.766 17.8466C100.316 18.099 99.9624 18.4652 99.7038 18.9453C99.4515 19.4254 99.3253 20.0071 99.3253 20.6903ZM115.908 29.2862C115.009 29.2862 114.2 29.1262 113.479 28.8061C112.765 28.4799 112.199 27.9998 111.781 27.3658C111.368 26.7318 111.162 25.95 111.162 25.0206C111.162 24.2204 111.31 23.5587 111.605 23.0355C111.901 22.5123 112.304 22.0938 112.815 21.7798C113.326 21.4659 113.901 21.2289 114.541 21.0689C115.188 20.9027 115.855 20.7827 116.545 20.7088C117.376 20.6226 118.05 20.5457 118.567 20.478C119.084 20.4041 119.459 20.2933 119.693 20.1456C119.933 19.9917 120.053 19.7547 120.053 19.4347V19.3793C120.053 18.6837 119.847 18.1451 119.435 17.7635C119.022 17.3819 118.428 17.1911 117.653 17.1911C116.834 17.1911 116.185 17.3696 115.705 17.7266C115.231 18.0836 114.911 18.5052 114.744 18.9915L111.624 18.5483C111.87 17.6866 112.276 16.9664 112.842 16.3878C113.409 15.803 114.101 15.366 114.92 15.0767C115.738 14.7812 116.643 14.6335 117.634 14.6335C118.317 14.6335 118.998 14.7135 119.675 14.8736C120.352 15.0336 120.97 15.2983 121.531 15.6676C122.091 16.0308 122.54 16.5263 122.879 17.1541C123.223 17.782 123.396 18.5668 123.396 19.5085V29H120.183V27.0518H120.072C119.869 27.4458 119.582 27.8151 119.213 28.1598C118.85 28.4983 118.391 28.7723 117.837 28.9815C117.29 29.1847 116.646 29.2862 115.908 29.2862ZM116.776 26.8303C117.446 26.8303 118.028 26.6979 118.521 26.4332C119.013 26.1624 119.392 25.8054 119.656 25.3622C119.927 24.919 120.062 24.4358 120.062 23.9126V22.2415C119.958 22.3277 119.779 22.4077 119.527 22.4815C119.281 22.5554 119.004 22.62 118.696 22.6754C118.388 22.7308 118.084 22.7801 117.782 22.8232C117.48 22.8662 117.219 22.9032 116.997 22.9339C116.499 23.0017 116.052 23.1125 115.658 23.2663C115.264 23.4202 114.954 23.6357 114.726 23.9126C114.498 24.1835 114.384 24.5343 114.384 24.9652C114.384 25.5807 114.609 26.0455 115.058 26.3594C115.508 26.6733 116.08 26.8303 116.776 26.8303ZM130.099 20.6903V29H126.756V14.8182H129.951V17.228H130.117C130.443 16.4339 130.964 15.803 131.678 15.3352C132.398 14.8674 133.287 14.6335 134.346 14.6335C135.325 14.6335 136.177 14.8428 136.903 15.2614C137.636 15.6799 138.202 16.2862 138.602 17.0803C139.009 17.8743 139.209 18.8376 139.202 19.9702V29H135.86V20.4872C135.86 19.5393 135.614 18.7976 135.121 18.2621C134.635 17.7266 133.961 17.4588 133.099 17.4588C132.515 17.4588 131.995 17.5881 131.539 17.8466C131.09 18.099 130.736 18.4652 130.477 18.9453C130.225 19.4254 130.099 20.0071 130.099 20.6903Z" fill="#FF2323"/>
</svg>
